<svg xmlns="http://www.w3.org/2000/svg" version="1.1" xmlns:xlink="http://www.w3.org/1999/xlink" xmlns:svgjs="http://svgjs.dev/svgjs" width="1000" height="166" viewBox="0 0 1000 166"><g transform="matrix(1,0,0,1,-0.6060606060606801,0.6166012813425397)"><svg viewBox="0 0 396 66" data-background-color="#ffffff" preserveAspectRatio="xMidYMid meet" height="166" width="1000" xmlns="http://www.w3.org/2000/svg" xmlns:xlink="http://www.w3.org/1999/xlink"><g id="tight-bounds" transform="matrix(1,0,0,1,0.24000000000003752,-0.24515472631691182)"><svg viewBox="0 0 395.5199999999999 66.49030945263382" height="66.49030945263382" width="395.5199999999999"><g><svg viewBox="0 0 395.5199999999999 66.49030945263382" height="66.49030945263382" width="395.5199999999999"><g><svg viewBox="0 0 492.4457505124766 82.78436069025355" height="66.49030945263382" width="395.5199999999999"><g transform="matrix(1,0,0,1,96.92575051247664,11.441253901474987)"><svg viewBox="0 0 395.52 59.901852887303576" height="59.901852887303576" width="395.52"><g id="textblocktransform"><svg viewBox="0 0 395.52 59.901852887303576" height="59.901852887303576" width="395.52" id="textblock"><g><svg viewBox="0 0 395.52 59.901852887303576" height="59.901852887303576" width="395.52"><g transform="matrix(1,0,0,1,0,0)"><svg width="395.52" viewBox="2.76 -37.7 253.23000000000002 38.36" height="59.901852887303576" data-palette-color="#00e6db"><g class="wordmark-text-0" data-fill-palette-color="primary" id="text-0"><path d="M2.76 0L2.76-6.69 6.2-6.69 6.2-30.3 2.76-30.3 2.76-37.01 17.99-37.01 28.91-10.3 39.04-37.01 54.49-37.01 54.49-30.3 51.05-30.3 51.05-6.69 54.44-6.69 54.44 0 40.6 0 40.6-6.69 43.14-6.69 43.14-27.98 32.06-0.44 25.2-0.44 13.92-27.25 13.92-6.69 16.67-6.69 16.67 0 2.76 0ZM76.76 0.66L76.76 0.66Q74.24 0.66 71.95-0.02 69.65-0.71 67.66-1.95 65.67-3.2 64.05-4.94 62.42-6.69 61.28-8.83 60.13-10.96 59.49-13.4 58.86-15.84 58.86-18.51L58.86-18.51Q58.86-21.17 59.49-23.62 60.13-26.07 61.28-28.21 62.42-30.35 64.05-32.09 65.67-33.84 67.66-35.08 69.65-36.33 71.95-37.01 74.24-37.7 76.76-37.7L76.76-37.7Q79.27-37.7 81.58-37.01 83.88-36.33 85.87-35.08 87.86-33.84 89.49-32.09 91.11-30.35 92.27-28.21 93.43-26.07 94.06-23.62 94.7-21.17 94.7-18.51L94.7-18.51Q94.7-15.87 94.06-13.42 93.43-10.96 92.27-8.83 91.11-6.69 89.49-4.94 87.86-3.2 85.87-1.95 83.88-0.71 81.58-0.02 79.27 0.66 76.76 0.66ZM76.76-7.01L76.76-7.01Q78.88-7.01 80.65-7.92 82.42-8.84 83.69-10.41 84.96-11.99 85.65-14.07 86.35-16.16 86.35-18.51L86.35-18.51Q86.35-20.87 85.64-22.97 84.93-25.07 83.65-26.65 82.37-28.22 80.61-29.14 78.85-30.05 76.76-30.05L76.76-30.05Q74.66-30.05 72.9-29.14 71.14-28.22 69.87-26.65 68.6-25.07 67.88-22.97 67.16-20.87 67.16-18.51L67.16-18.51Q67.16-16.16 67.88-14.07 68.6-11.99 69.87-10.41 71.14-8.84 72.9-7.92 74.66-7.01 76.76-7.01ZM117.79-30.3L117.79-37.01 133.64-37.01 133.64-30.3 130.34-30.3 120.45 0 110.44 0 100.85-30.3 97.29-30.3 97.29-37.01 113.15-37.01 113.15-30.3 109.2-30.3 115.64-9.3 122.07-30.3 117.79-30.3ZM136.91-30.32L136.91-37.01 152.75-37.01 152.75-30.32 148.85-30.32 148.85-6.69 152.75-6.69 152.75 0 136.91 0 136.91-6.69 140.74-6.69 140.74-30.32 136.91-30.32ZM156.68-29.64L156.68-37.01 186.12-37.01 186.12-24.39 178.16-24.39 178.16-29.64 168.67-29.64 168.67-22.34 176.02-22.34 176.02-15.26 168.67-15.26 168.67-6.69 178.16-6.69 178.16-13.26 186.12-13.26 186.12 0 156.68 0 156.68-6.69 160.56-6.69 160.56-29.64 156.68-29.64ZM189.61-30.3L189.61-37.01 203.82-37.01Q206.36-37.01 208.69-36.35 211.02-35.69 213.04-34.5 215.05-33.3 216.7-31.63 218.35-29.96 219.52-27.91 220.69-25.85 221.33-23.49 221.96-21.12 221.96-18.55L221.96-18.55Q221.96-15.99 221.33-13.62 220.69-11.25 219.52-9.19 218.35-7.13 216.7-5.43 215.05-3.74 213.04-2.53 211.02-1.32 208.69-0.66 206.36 0 203.82 0L203.82 0 189.61 0 189.61-6.69 192.57-6.69 192.57-30.3 189.61-30.3ZM203.77-30.3L200.67-30.3 200.67-6.69 203.77-6.69Q205.75-6.69 207.51-7.62 209.26-8.54 210.56-10.14 211.85-11.74 212.61-13.9 213.37-16.06 213.37-18.55L213.37-18.55Q213.37-21.02 212.61-23.17 211.85-25.32 210.56-26.9 209.26-28.49 207.51-29.39 205.75-30.3 203.77-30.3L203.77-30.3ZM226.21 0L226.21-6.69 229.99-6.69 229.99-30.3 226.21-30.3 226.21-37.06 244.25-37.01Q246.76-37.01 248.85-36.12 250.94-35.23 252.45-33.7 253.96-32.18 254.81-30.14 255.65-28.1 255.65-25.81L255.65-25.81Q255.65-23.12 254.71-21.36 253.77-19.6 252.04-18.53L252.04-18.53Q253.87-17.36 254.93-15.64 255.99-13.92 255.99-11.45L255.99-11.45Q255.99-8.94 255.12-6.84 254.26-4.74 252.76-3.21 251.25-1.68 249.2-0.84 247.15 0 244.78 0L244.78 0 226.21 0ZM244.25-15.31L238.1-15.31 238.1-6.69 244.25-6.69Q244.96-6.69 245.58-7.06 246.2-7.42 246.65-8.02 247.1-8.62 247.37-9.41 247.64-10.21 247.64-11.06L247.64-11.06Q247.64-11.96 247.37-12.73 247.1-13.5 246.64-14.07 246.18-14.65 245.55-14.98 244.93-15.31 244.25-15.31L244.25-15.31ZM243.91-30.3L238.1-30.3 238.1-22 243.91-22Q244.59-22 245.2-22.34 245.81-22.68 246.26-23.25 246.71-23.83 246.98-24.55 247.25-25.27 247.25-26.05L247.25-26.05Q247.25-26.81 246.98-27.56 246.71-28.32 246.26-28.93 245.81-29.54 245.2-29.92 244.59-30.3 243.91-30.3L243.91-30.3Z" fill="#00e6db" data-fill-palette-color="primary"></path></g></svg></g></svg></g></svg></g></svg></g><g><svg viewBox="0 0 82.78436069025356 82.78436069025355" height="82.78436069025355" width="82.78436069025356"><g><svg xmlns="http://www.w3.org/2000/svg" xmlns:xlink="http://www.w3.org/1999/xlink" version="1.1" x="0" y="0" viewBox="3.7 3.7 82.60000000000001 82.6" enable-background="new 0 0 90 90" xml:space="preserve" height="82.78436069025355" width="82.78436069025356" class="icon-icon-0" data-fill-palette-color="accent" id="icon-0"><g fill="#adf88b" data-fill-palette-color="accent"><path d="M45 86.3C22.2 86.3 3.7 67.8 3.7 45S22.2 3.7 45 3.7c22.8 0 41.3 18.5 41.3 41.3 0 9.6-3.3 18.9-9.4 26.3-1.8 2.1-4.9 2.4-7 0.7-2.1-1.8-2.4-4.9-0.7-7 4.6-5.6 7.1-12.6 7.1-19.9 0-17.2-14-31.3-31.3-31.3-17.2 0-31.3 14-31.3 31.3s14 31.3 31.3 31.3c2.8 0 5 2.2 5 5S47.8 86.3 45 86.3z" fill="#adf88b" data-fill-palette-color="accent"></path><g fill="#adf88b" data-fill-palette-color="accent"><g fill="#adf88b" data-fill-palette-color="accent"><g fill="#adf88b" data-fill-palette-color="accent"><path d="M58 23.4c-2.2 0-4.4 0.8-6 2.5-3.3 3.3-3.3 8.7 0 12.1 1.7 1.7 3.8 2.5 6 2.5 2.2 0 4.4-0.8 6-2.5 3.3-3.3 3.3-8.7 0-12.1C62.4 24.3 60.2 23.4 58 23.4L58 23.4z" fill="#adf88b" data-fill-palette-color="accent"></path></g></g><g fill="#adf88b" data-fill-palette-color="accent"><g fill="#adf88b" data-fill-palette-color="accent"><path d="M32 49.5c-2.2 0-4.4 0.8-6 2.5-3.3 3.3-3.3 8.7 0 12.1 1.7 1.7 3.8 2.5 6 2.5 2.2 0 4.4-0.8 6-2.5 3.3-3.3 3.3-8.7 0-12.1C36.3 50.3 34.2 49.5 32 49.5L32 49.5z" fill="#adf88b" data-fill-palette-color="accent"></path></g></g></g><g fill="#adf88b" data-fill-palette-color="accent"><g fill="#adf88b" data-fill-palette-color="accent"><g fill="#adf88b" data-fill-palette-color="accent"><path d="M58 49.5c-2.2 0-4.4 0.8-6 2.5-3.3 3.3-3.3 8.7 0 12.1 1.7 1.7 3.8 2.5 6 2.5 2.2 0 4.4-0.8 6-2.5 3.3-3.3 3.3-8.7 0-12.1C62.4 50.3 60.2 49.5 58 49.5L58 49.5z" fill="#adf88b" data-fill-palette-color="accent"></path></g></g><g fill="#adf88b" data-fill-palette-color="accent"><g fill="#adf88b" data-fill-palette-color="accent"><path d="M32 23.4c-2.2 0-4.4 0.8-6 2.5-3.3 3.3-3.3 8.7 0 12.1 1.7 1.7 3.9 2.5 6 2.5 2.2 0 4.4-0.8 6-2.5 3.3-3.3 3.3-8.7 0-12.1C36.3 24.3 34.2 23.4 32 23.4L32 23.4z" fill="#adf88b" data-fill-palette-color="accent"></path></g></g></g><g fill="#adf88b" data-fill-palette-color="accent"><g fill="#adf88b" data-fill-palette-color="accent"><g fill="#adf88b" data-fill-palette-color="accent"><path d="M45 41.2c-1 0-1.9 0.4-2.7 1.1-1.5 1.5-1.5 3.9 0 5.4 0.7 0.7 1.7 1.1 2.7 1.1 1 0 1.9-0.4 2.7-1.1 1.5-1.5 1.5-3.9 0-5.4C46.9 41.6 46 41.2 45 41.2L45 41.2z" fill="#adf88b" data-fill-palette-color="accent"></path></g></g></g><path d="M81.3 86.3H44.6c-2.8 0-5-2.2-5-5s2.2-5 5-5h36.7c2.8 0 5 2.2 5 5S84 86.3 81.3 86.3z" fill="#adf88b" data-fill-palette-color="accent"></path></g></svg></g></svg></g></svg></g></svg></g><defs></defs></svg><rect width="395.5199999999999" height="66.49030945263382" fill="none" stroke="none" visibility="hidden"></rect></g></svg></g></svg>